<svg width="953" height="341" viewBox="0 0 953 341" fill="none" xmlns="http://www.w3.org/2000/svg">
<g clip-path="url(#clip0_172_2)">
<path d="M59.4999 163.78C38.4699 165.95 32.1499 169.44 21.4199 165.46C-4.83012 155.72 17.0899 141.42 18.5999 140.54C51.8299 121.14 94.8199 124.87 131.22 130.59C139.49 131.89 147.9 133.43 155.28 137.4C162.66 141.37 168.95 148.2 170.24 156.47C172.06 168.22 163.79 178.96 161.14 190.55C161.14 190.55 159.98 197.37 160.19 208.57C160.45 222.85 202.12 286.57 188.21 311.29C181.42 323.36 160.27 326.22 146.88 322.84C127.52 317.95 128.82 301.15 109.58 295.57C91.3399 290.27 84.9299 303.85 55.6899 299.66C43.4499 297.9 35.2499 294.19 29.7399 290.95C26.6099 289.11 20.3399 285.08 15.0599 279.22C3.48988 266.38 -4.99012 242.99 3.39988 220.96C10.0899 203.4 25.4699 192.03 38.4299 187.68C46.3399 185.02 61.4499 182.26 67.1899 181.21C77.4699 179.33 87.0499 178.04 90.5099 171.19C91.1299 169.96 92.0699 168.11 91.3799 166.37C89.1799 160.84 72.7599 162.42 59.5199 163.78H59.4999ZM92.6599 260.48C94.0899 260.79 95.3099 260.91 96.8999 260.91C104.35 260.9 112.16 253.8 111.48 246.9C110.89 240.83 106.21 216.21 101.72 211.34C94.7799 203.8 79.8999 203.08 72.4699 209.44C61.6399 218.71 69.5099 241.42 77.6299 250.81C79.2199 252.65 84.4399 258.68 92.6599 260.48V260.48Z" fill="#010101"/>
<path d="M365.85 229.59C365.45 232.85 364.73 236.07 363.66 239.17C360.95 247.04 354.46 258.96 344.68 258.31C338.48 257.9 333.46 257.87 326.91 255.58C316.68 252.01 315.63 248.65 311.41 249.12C303.72 249.98 303.96 261.49 294.55 271.57C280.53 286.59 256.8 285.9 245.69 285.58C237.9 285.35 229.26 284.99 220 279.54C215.14 276.68 211.01 272.74 207.57 268.27C194.19 250.86 187.99 229.17 185.38 207.5C183.97 195.79 182.26 181.42 185.38 169.85C187.27 162.86 192.81 156.9 198.34 152.42C209.27 143.57 224.52 137.75 231.18 124.57C232.96 121.05 233.89 117.16 234.14 113.22C234.63 105.41 233.77 99.4 233.23 97.03C224.54 58.3 222.98 34.17 227.85 23.21C233.44 10.63 253.45 -0.500036 257.96 0.0199642C264.52 0.769964 271.43 4.59996 273.31 11.24C276.39 22.11 279.79 31.66 279.54 43.03C279.3 54.16 280.45 65.59 282.28 76.55C285.86 98.02 293.6 119.22 308.03 135.83C317.89 147.18 330.4 155.93 340.82 166.78C352.21 178.64 361.08 193.21 364.69 209.26C366.18 215.86 366.68 222.83 365.84 229.6L365.85 229.59ZM250.47 165.98C247.43 166.25 242.12 167.14 239.4 171.01C229.65 184.9 259.05 229.02 273.25 225.6C281.21 223.68 289.41 205.11 282.75 194.85C281.97 193.65 281.24 192.42 280.47 191.22C273.79 180.96 263.27 174.94 254.08 167.46C252.86 166.46 251.04 166.2 250.48 165.98H250.47Z" fill="#010101"/>
<path d="M412.03 296.15C401.01 296.15 393.38 293.6 388.71 288.34C381.5 280.23 382.12 266.11 383.46 254.71C384.59 245.13 385.44 240.65 386.12 237.05C386.7 233.96 387.17 231.52 387.54 227.28C388.6 215.36 390.82 190.57 376.93 171.14C373.07 165.73 369.93 163.53 366.89 161.4C363.82 159.25 360.92 157.22 356.55 151.32C349.21 141.43 344.77 130.73 343.36 119.5C342.11 109.61 339.8 91.1899 351.13 82.4899C355.79 78.9099 362.38 76.6899 368.31 76.6899C372.35 76.6899 375.77 77.6899 378.2 79.5799C380.2 81.1299 381.73 83.8299 383.34 86.6799C386.19 91.7299 389.74 98.0199 397.48 98.0199C403.68 98.0199 411.13 93.8999 421.65 84.6499C424.8 81.8799 433 77.9799 441.36 77.9799C443.92 77.9799 446.35 78.3399 448.57 79.0599C452.69 80.3899 454.78 82.6299 457.43 85.4699C460.54 88.8099 464.42 92.9699 472.24 95.8599C474.61 96.7399 480.16 98.7799 486.84 98.7799C489.65 98.7799 492.41 98.4199 495.02 97.7099C499.44 96.4999 502.87 92.8199 506.49 88.9299C511.79 83.2299 517.27 77.3399 526.48 77.3399C528.85 77.3399 531.42 77.7399 534.11 78.5199C564.58 87.3299 564.73 114.32 564.91 145.58C565.06 171.89 565.23 201.71 585.17 223.25C595.1 233.98 596.39 241.39 596.31 247.79C596.15 259.67 587.45 274.77 576.47 276.43C572.59 277.01 568.9 277.31 565.49 277.31H565.48C548.18 277.31 537.32 269.94 531.29 254.11C525.77 239.61 525.2 220.05 524.69 202.8C523.9 176.05 523.16 150.79 503.23 150.79C502.56 150.79 501.86 150.82 501.16 150.89C496.88 151.28 494.59 153.39 493.43 155.1C489.28 161.19 492.27 171.48 496.06 184.51C500.02 198.11 504.94 215.03 498.89 223.38C495.94 227.45 490.44 229.56 482.07 229.83C481.65 229.84 481.22 229.85 480.8 229.85C456.72 229.85 450.25 206.34 444.54 185.59C440.5 170.91 437.01 158.22 426.66 158.22C425.79 158.22 424.88 158.32 423.97 158.53C419.21 159.6 415.88 162.05 414.07 165.81C408.99 176.4 418.09 194.99 428.64 216.53C440.9 241.57 454.8 269.95 445.61 284.67C440.86 292.28 429.56 296.14 412.03 296.14V296.15Z" fill="#010101"/>
<path d="M632.79 270.32C629.04 270.32 625.99 269.58 623.95 268.19C619.87 265.39 619.04 258.79 617.99 250.42C616.87 241.48 615.47 230.36 609.31 219.44C605.24 212.23 600.09 203.97 596.2 198.4C595.32 197.14 594.59 196.14 593.95 195.26C591.88 192.42 591.02 191.24 589.19 187.06C589.06 186.75 575.55 154.78 585.99 105.67C586.13 104.99 586.28 104.31 586.51 103.51C588.9 95.25 594.44 84.53 602.21 81.5C603.91 80.84 605.79 80.5 607.8 80.5C616.3 80.5 625.33 86.35 630.12 91.79C632.86 94.9 635.58 100.48 641.22 137.43C642.54 146.08 643.01 149.84 643.36 152.59C643.53 153.92 646.86 167.56 650.25 175.41C658.72 195.06 674.49 231.62 667.47 249.74C662.77 261.87 645.43 270.32 632.8 270.32H632.79Z" fill="#010101"/>
<path d="M628.59 58.7C625.3 58.7 621.6 58.15 616.92 57.45C608.41 56.18 599.61 54.88 592.02 48C589.38 45.61 583.21 40.02 582.15 31.06C580.55 17.54 592.08 8.11001 592.2 8.02001C598.06 3.33001 604.36 2.39001 612.63 2.39001C613.74 2.39001 614.84 2.40001 615.93 2.42001C625.03 2.54001 640.26 2.74001 647.62 13.3C650.77 17.83 653.68 26.03 649.6 39.36C648.4 43.29 645.58 52.49 637.21 56.77C634.6 58.11 631.94 58.7 628.61 58.7H628.59Z" fill="#010101"/>
<path d="M720.62 302.83C720.19 302.83 719.76 302.81 719.34 302.77C707.72 301.7 699.58 285.3 694.71 275.5C687.74 261.48 686.94 252.38 685.72 238.62C685.04 230.91 684.26 222.16 682.26 210.58C678.58 189.37 674.07 178.03 670.1 168.02C665.76 157.1 662.01 147.67 660.37 127.64C656.78 83.92 657.14 56.84 661.44 47.15C661.86 46.21 662.37 45.3 663.07 44.29C669.19 35.36 681.65 29.12 693.37 29.12C698.18 29.12 702.48 30.23 705.8 32.33C713.96 37.5 715.43 48.15 717.97 71.76C718.8 79.45 719.4 87.57 720.04 96.17C722.31 126.74 724.88 161.38 738.71 202.34C754.5 249.09 755.65 256.57 753.39 265.99C749.23 283.37 734.33 302.82 720.64 302.82L720.62 302.83Z" fill="#010101"/>
<path d="M928.09 340.3C859.68 340.3 855.23 245.13 830.98 245.72C828.78 245.77 826.79 246.68 825.39 248.42C822.48 252.02 820.4 259.88 827.08 290.83C829.2 300.68 827.88 310.38 823.54 316.76C820.39 321.39 815.02 327.9 800.96 327.31C783.61 326.58 781.85 289.84 780.91 269.71C780.73 265.81 776.55 245.3 771.46 230.37C757.06 188.14 730.25 109.52 749.57 80.62C753.91 74.13 760.37 70.65 769.3 69.98C772.21 70.48 774.93 71.41 777.38 72.74C789.2 79.16 792.93 93.74 796.23 106.6C799.06 117.63 801.5 127.16 809.28 128.99C810.05 129.17 810.84 129.26 811.65 129.26C817.95 129.26 824.71 123.83 832.93 112.17L833.14 111.87L833.29 111.54C844.61 87.03 866.68 76.06 883.52 76.06C889.69 76.06 895.44 77.47 900.15 80.13C905.78 83.31 910.4 88.55 913.68 95.1C921.54 110.8 919.21 129.85 908.05 143.4C907.97 143.49 907.89 143.59 907.82 143.68C898.09 155.33 886.1 159.94 875.52 164.01C864.94 168.08 855.8 171.6 853.29 181.19C850.64 191.28 857.3 199.91 868.34 214.2C880.41 229.83 892.13 238.74 900.69 245.24C902.74 246.8 904.52 248.15 906.06 249.41C918.13 259.29 952.61 293.01 952.76 317.57C952.8 324.47 950.17 330.06 944.72 334.64C940.26 338.38 934.67 340.28 928.09 340.28V340.3Z" fill="#010101"/>
</g>
<defs>
<clipPath id="clip0_172_2">
<rect width="952.76" height="340.3" fill="white"/>
</clipPath>
</defs>
</svg>
