<svg width="27" height="24" viewBox="0 0 27 24" fill="none" xmlns="http://www.w3.org/2000/svg">
<path d="M4.23578 11.6624C2.73822 11.817 2.28817 12.0655 1.52407 11.7821C-0.345208 11.0885 1.21573 10.0702 1.32326 10.0075C3.68959 8.626 6.75094 8.89162 9.34301 9.29894C9.93193 9.39152 10.5308 9.50118 11.0563 9.78389C11.5819 10.0666 12.0298 10.553 12.1217 11.1419C12.2513 11.9786 11.6623 12.7434 11.4736 13.5687C11.4736 13.5687 11.391 14.0544 11.406 14.852C11.4245 15.8688 14.3919 20.4064 13.4013 22.1667C12.9178 23.0262 11.4117 23.2299 10.4582 22.9892C9.07953 22.641 9.17211 21.4446 7.80201 21.0473C6.50313 20.6699 6.04667 21.6369 3.96447 21.3385C3.09285 21.2132 2.50892 20.949 2.11655 20.7183C1.89366 20.5873 1.44717 20.3003 1.07117 19.883C0.247266 18.9686 -0.356602 17.303 0.240856 15.7343C0.717256 14.4838 1.81248 13.6741 2.73537 13.3644C3.29865 13.1749 4.37464 12.9784 4.78339 12.9036C5.51544 12.7698 6.19764 12.6779 6.44402 12.1901C6.48818 12.1025 6.55511 11.9708 6.50598 11.8469C6.34931 11.4531 5.18003 11.5656 4.2372 11.6624H4.23578ZM6.59713 18.5485C6.69896 18.5706 6.78584 18.5791 6.89906 18.5791C7.42958 18.5784 7.98574 18.0728 7.93731 17.5815C7.8953 17.1492 7.56203 15.396 7.2423 15.0492C6.74809 14.5123 5.68848 14.461 5.15938 14.9139C4.38817 15.574 4.9486 17.1912 5.52683 17.8599C5.64005 17.9909 6.01178 18.4203 6.59713 18.5485Z" fill="#FCFAF3"/>
<path d="M26.0545 16.3491C26.0261 16.5812 25.9748 16.8105 25.8986 17.0313C25.7056 17.5917 25.2434 18.4406 24.547 18.3943C24.1055 18.3651 23.748 18.3629 23.2816 18.1999C22.5531 17.9456 22.4783 17.7064 22.1778 17.7398C21.6302 17.8011 21.6473 18.6207 20.9772 19.3385C19.9788 20.4081 18.289 20.359 17.4979 20.3362C16.9431 20.3198 16.3279 20.2942 15.6685 19.9061C15.3224 19.7024 15.0283 19.4218 14.7833 19.1035C13.8305 17.8637 13.389 16.3192 13.2031 14.7761C13.1027 13.9422 12.981 12.9189 13.2031 12.095C13.3377 11.5972 13.7322 11.1728 14.126 10.8538C14.9044 10.2235 15.9903 9.8091 16.4646 8.87054C16.5913 8.61988 16.6576 8.34287 16.6754 8.0623C16.7103 7.50615 16.649 7.07817 16.6106 6.9094C15.9917 4.15141 15.8807 2.43309 16.2275 1.65262C16.6255 0.756794 18.0505 -0.0357818 18.3716 0.00124781C18.8388 0.0546559 19.3308 0.327393 19.4647 0.800232C19.684 1.57429 19.9261 2.25436 19.9083 3.06402C19.8912 3.8566 19.9731 4.67054 20.1035 5.45101C20.3584 6.9799 20.9096 8.48957 21.9371 9.67238C22.6393 10.4806 23.5301 11.1037 24.2721 11.8764C25.0832 12.7209 25.7149 13.7584 25.9719 14.9014C26.078 15.3714 26.1136 15.8677 26.0538 16.3498L26.0545 16.3491ZM17.8382 11.8194C17.6218 11.8386 17.2436 11.902 17.0499 12.1776C16.3556 13.1667 18.4492 16.3085 19.4604 16.065C20.0273 15.9282 20.6112 14.6059 20.1369 13.8752C20.0814 13.7898 20.0294 13.7022 19.9746 13.6167C19.4989 12.8861 18.7497 12.4574 18.0953 11.9248C18.0084 11.8536 17.8788 11.835 17.839 11.8194H17.8382Z" fill="#FCFAF3"/>
</svg>
